<svg xmlns:mydata="http://www.w3.org/2000/svg" mydata:contrastcolor="ffffff" mydata:template="Default" mydata:presentation="2.5" mydata:layouttype="undefined" mydata:specialfontid="undefined" mydata:id1="1021" mydata:id2="1021" mydata:companyname="Mahdi Aali" mydata:companytagline="" version="1.1" xmlns="http://www.w3.org/2000/svg" xmlns:xlink="http://www.w3.org/1999/xlink" viewBox="0 0 550 470"><g fill="#222223" fill-rule="none" stroke="none" stroke-width="1" stroke-linecap="butt" stroke-linejoin="miter" stroke-miterlimit="10" stroke-dasharray="" stroke-dashoffset="0" font-family="none" font-weight="none" font-size="none" text-anchor="none" style="mix-blend-mode: normal"><g data-paper-data="{&quot;isGlobalGroup&quot;:true,&quot;bounds&quot;:{&quot;x&quot;:65,&quot;y&quot;:169.32675416950462,&quot;width&quot;:420,&quot;height&quot;:131.34649166099075}}"><g data-paper-data="{&quot;isPrimaryText&quot;:true}" fill-rule="nonzero"><path d="M156.02653,265.51644c0.56228,0 1.02233,-0.46005 1.02233,-1.02233c-0.15335,-0.66451 -0.3067,-0.86898 -0.3067,-1.8913c0,-7.56521 11.96122,-34.29905 29.95416,-53.36543c0.25558,-0.25558 0.35781,-0.51116 0.35781,-0.76674c0,-0.56228 -0.51116,-1.02233 -1.12456,-1.02233c-0.15335,0 -0.35781,0.05112 -0.51116,0.15335c-13.85252,8.58754 -30.92537,24.28025 -42.06872,37.26379c6.38954,-12.16568 12.98354,-23.15569 20.54876,-34.65686c0.10223,-0.20447 0.15335,-0.35781 0.15335,-0.56228c0,-0.56228 -0.46005,-1.07344 -1.02233,-1.07344c-0.20447,0 -0.35781,0.05112 -0.51116,0.15335c-11.80787,6.54289 -39.66626,52.08752 -59.19269,52.08752c-4.54935,0 -6.9007,-2.40247 -6.9007,-5.98061c0,-1.63572 0.46005,-3.37368 1.02233,-5.0094c3.1181,-8.53642 12.93243,-18.86192 22.54229,-18.86192c1.43126,0 2.8114,0.20447 4.19154,0.71563l0.35781,0.05112c0.6134,0 0.92009,-0.46005 1.02233,-1.12456c0,-0.35781 -0.20447,-0.76674 -0.71563,-0.92009c-1.58461,-0.56228 -3.22033,-0.81786 -4.80493,-0.81786c-10.37661,0 -20.75322,10.37661 -24.38248,19.78201c-0.76674,2.04465 -1.27791,4.24265 -1.27791,6.23619c0,4.75382 2.96475,8.07638 8.84312,8.07638c17.99294,0 41.91538,-34.91244 55.20562,-48.20268c-9.7121,15.0282 -15.0282,25.40481 -22.18448,39.10398c-0.10223,0.15335 -0.10223,0.3067 -0.10223,0.46005c0,0.56228 0.46005,1.07344 1.02233,1.07344c0.3067,0 0.6134,-0.15335 0.86898,-0.51116c9.25205,-13.03466 27.44946,-30.61867 41.76203,-40.94417c-14.56815,17.53289 -25.04699,40.68858 -25.04699,49.02054c0,1.48237 0.3067,2.55582 1.27791,2.55582z" data-paper-data="{&quot;glyphName&quot;:&quot;M&quot;,&quot;glyphIndex&quot;:0,&quot;firstGlyphOfWord&quot;:true,&quot;word&quot;:1}"></path><path d="M182.50478,251.25499c3.73149,0 14.1081,-6.18507 17.94183,-8.38308c0.35781,-0.20447 0.51116,-0.51116 0.51116,-0.81786c0,-0.56228 -0.40893,-1.12456 -1.02233,-1.12456c-0.20447,0 -0.35781,0.05112 -0.56228,0.15335c-3.16921,1.84019 -13.8014,8.07638 -16.86838,8.07638c-0.76674,0 -1.07344,-0.40893 -1.07344,-1.27791c0,-1.99354 1.8913,-5.57168 2.40247,-6.33842c0.15335,-0.20447 0.20447,-0.40893 0.20447,-0.6134c0,-0.6134 -0.51116,-1.07344 -1.07344,-1.07344c-0.20447,0 -0.40893,0.10223 -0.6134,0.20447c-0.86898,-0.86898 -2.55582,-1.43126 -3.88484,-1.43126c-4.90717,0 -9.81433,5.77614 -9.81433,9.35429c0,1.58461 1.07344,2.60693 2.70916,2.60693c2.8114,0 6.49177,-3.16921 8.28084,-4.80493c-0.15335,0.66451 -0.25558,1.32902 -0.25558,1.99354c0,1.94242 0.76674,3.42479 3.1181,3.47591zM171.51477,248.75029c-0.40893,0 -0.66451,-0.25558 -0.66451,-0.81786c0,-2.14689 3.42479,-6.95182 7.56521,-7.15628c0.92009,0 1.99354,0.3067 2.5047,0.81786c-0.86898,0.92009 -7.30963,7.15628 -9.4054,7.15628z" data-paper-data="{&quot;glyphName&quot;:&quot;a&quot;,&quot;glyphIndex&quot;:1,&quot;word&quot;:1}"></path><path d="M215.32145,251.35722c5.67391,-0.20447 15.38601,-5.92949 19.7309,-8.43419c0.35781,-0.20447 0.51116,-0.51116 0.51116,-0.81786c0,-0.56228 -0.40893,-1.12456 -1.02233,-1.12456c-0.20447,0 -0.35781,0.05112 -0.56228,0.15335c-3.88484,2.30023 -13.54582,8.07638 -18.75969,8.12749c-0.76674,0 -1.02233,-0.40893 -1.02233,-1.02233c0,-1.84019 2.24912,-5.62279 2.24912,-8.07638c0,-1.38014 -0.66451,-2.09577 -2.35135,-2.24912c-5.16275,0 -14.1081,11.19447 -15.59048,11.39894v-0.10223c0,-0.3067 0.20447,-1.07344 0.56228,-2.198c2.76028,-8.22973 15.99941,-27.75616 17.58401,-29.95416c0.15335,-0.20447 0.20447,-0.35781 0.20447,-0.56228c0,-0.6134 -0.56228,-1.07344 -1.12456,-1.07344c-0.25558,0 -0.56228,0.10223 -0.76674,0.40893c-1.73795,2.40247 -15.0282,22.03113 -17.89071,30.51644c-0.3067,1.02233 -0.51116,1.94242 -0.51116,2.76028c0,1.27791 0.46005,2.14689 1.78907,2.24912c2.96475,0 11.55229,-11.2967 15.59048,-11.2967h0.25558c0.10223,0 0.15335,0.10223 0.15335,0.3067c0,1.12456 -2.14689,5.26498 -2.14689,8.12749c0,1.63572 0.71563,2.86251 2.96475,2.86251z" data-paper-data="{&quot;glyphName&quot;:&quot;h&quot;,&quot;glyphIndex&quot;:2,&quot;word&quot;:1}"></path><path d="M245.78677,251.3061c3.57814,0 14.67038,-4.75382 20.95769,-8.53642c0.35781,-0.20447 0.51116,-0.51116 0.51116,-0.86898c0,-0.6134 -0.56228,-1.07344 -1.07344,-1.07344c-0.15335,0 -0.35781,0.05112 -0.51116,0.15335c-5.98061,3.57814 -16.86838,8.22973 -19.88425,8.22973c-0.76674,0 -1.12456,-0.56228 -1.12456,-1.48237v-0.20447c0.05112,-7.05405 10.99001,-23.87132 15.07931,-30.77202c0.10223,-0.15335 0.10223,-0.25558 0.10223,-0.40893c0,-0.56228 -0.51116,-1.02233 -1.07344,-1.02233c-0.3067,0 -0.6134,0.10223 -0.81786,0.40893c-5.16275,7.5141 -9.60987,15.43713 -15.0282,22.84899c-0.56228,-0.81786 -1.32902,-1.22679 -2.76028,-1.27791c-3.52703,0 -9.45652,6.28731 -9.45652,9.91656c0,1.58461 0.92009,2.55582 2.91363,2.55582c3.52703,0 9.04759,-7.41187 11.24559,-10.37661c-0.92009,2.14689 -2.30023,5.67391 -2.30023,8.28084c0,2.04465 0.76674,3.57814 3.22033,3.62926zM233.62109,247.72796c-0.6134,-0.05112 -0.81786,-0.3067 -0.81786,-0.76674c0,-2.04465 4.85605,-7.61633 7.30963,-7.61633c0.92009,0.05112 1.27791,0.40893 1.43126,1.12456c-3.27144,4.24265 -6.18507,7.25852 -7.92303,7.25852z" data-paper-data="{&quot;glyphName&quot;:&quot;d&quot;,&quot;glyphIndex&quot;:3,&quot;word&quot;:1}"></path><path d="M270.68041,235.35781c0.10223,0 0.20447,0 0.35781,-0.05112l1.27791,-0.56228c0.51116,-0.15335 0.71563,-0.51116 0.71563,-0.92009c0,-0.51116 -0.40893,-1.07344 -1.02233,-1.07344c-0.10223,0 -0.20447,0 -0.35781,0.05112l-1.32902,0.51116c-0.46005,0.20447 -0.66451,0.56228 -0.66451,0.97121c0,0.56228 0.40893,1.07344 1.02233,1.07344zM264.80204,251.25499c5.67391,0 18.35076,-5.3161 25.91597,-8.28084c0.46005,-0.20447 0.66451,-0.56228 0.66451,-0.92009c-0.15335,-0.66451 -0.3067,-1.12456 -1.02233,-1.12456l-0.40893,0.10223c-7.05405,2.76028 -19.83313,8.12749 -25.04699,8.12749h-0.3067c-0.3067,0 -0.51116,-0.05112 -0.51116,-0.35781v-0.10223c0.05112,-1.8913 2.8114,-5.82726 4.34489,-8.12749c0.15335,-0.20447 0.20447,-0.40893 0.20447,-0.6134c0,-0.51116 -0.51116,-1.02233 -1.12456,-1.02233c-0.25558,0 -0.56228,0.15335 -0.76674,0.46005c-1.99354,2.91363 -4.65158,6.69624 -4.75382,9.45652c0,1.63572 0.86898,2.35135 2.8114,2.40247z" data-paper-data="{&quot;glyphName&quot;:&quot;i&quot;,&quot;glyphIndex&quot;:4,&quot;lastGlyphOfWord&quot;:true,&quot;word&quot;:1}"></path><path d="M354.71563,271.29258c0.46005,0 0.97121,-0.25558 1.07344,-0.86898c1.27791,-8.89424 10.73443,-26.47825 15.33489,-35.21914c1.48237,-0.05112 2.86251,-0.05112 4.0893,-0.05112c1.68684,0 2.8114,0.05112 3.88484,0.10223c0.66451,0 0.97121,-0.51116 1.02233,-1.02233c0,-0.51116 -0.3067,-1.02233 -0.97121,-1.07344c-0.86898,-0.10223 -1.99354,-0.10223 -3.32256,-0.10223c-1.07344,0 -2.24912,0 -3.57814,0.05112c7.87191,-14.82373 16.25499,-28.93183 19.57755,-32.71444c0.20447,-0.20447 0.25558,-0.40893 0.25558,-0.66451c0,-0.56228 -0.51116,-1.02233 -1.07344,-1.02233c-0.20447,0 -0.40893,0.05112 -0.6134,0.20447c-13.69917,10.68331 -27.19388,23.56462 -39.81961,35.62807c-16.3061,1.38014 -34.1457,3.47591 -39.41068,4.34489c-0.56228,0.10223 -0.86898,0.56228 -0.86898,1.02233c0.05112,0.56228 0.25558,1.07344 0.97121,1.07344l1.99354,-0.05112c8.38308,0 13.03466,4.60047 13.03466,11.2967c0,2.86251 -0.81786,6.03172 -2.55582,9.4054c-0.10223,0.20447 -0.20447,0.40893 -0.20447,0.6134c0,0.51116 0.56228,1.02233 1.12456,1.02233c0.25558,0 0.56228,-0.10223 0.76674,-0.40893c6.95182,-7.56521 16.3061,-16.97062 26.06932,-26.3249c6.18507,-0.51116 12.2168,-0.97121 17.2262,-1.22679c-4.49824,8.58754 -13.69917,25.86485 -15.0282,34.81021v0.15335c0,0.6134 0.51116,1.02233 1.02233,1.02233zM353.89777,234.23326c11.34782,-10.78554 23.00234,-21.36662 31.89658,-28.88072c-4.29377,6.69624 -10.27438,17.12396 -15.94829,27.80727c-4.54935,0.20447 -10.06991,0.6134 -15.94829,1.07344zM327.6751,257.38894c0.46005,-1.73795 0.71563,-3.42479 0.71563,-5.11163c0,-5.46945 -2.70916,-10.32549 -8.68977,-12.42126c5.36721,-0.66451 16.86838,-1.94242 28.47179,-3.01586c-7.25852,7.00293 -14.4148,14.1081 -20.49764,20.54876z" data-paper-data="{&quot;glyphName&quot;:&quot;A&quot;,&quot;glyphIndex&quot;:5,&quot;firstGlyphOfWord&quot;:true,&quot;word&quot;:2}"></path><path d="M388.75909,251.25499c3.73149,0 14.1081,-6.18507 17.94183,-8.38308c0.35781,-0.20447 0.51116,-0.51116 0.51116,-0.81786c0,-0.56228 -0.40893,-1.12456 -1.02233,-1.12456c-0.20447,0 -0.35781,0.05112 -0.56228,0.15335c-3.16921,1.84019 -13.8014,8.07638 -16.86838,8.07638c-0.76674,0 -1.07344,-0.40893 -1.07344,-1.27791c0,-1.99354 1.8913,-5.57168 2.40247,-6.33842c0.15335,-0.20447 0.20447,-0.40893 0.20447,-0.6134c0,-0.6134 -0.51116,-1.07344 -1.07344,-1.07344c-0.20447,0 -0.40893,0.10223 -0.6134,0.20447c-0.86898,-0.86898 -2.55582,-1.43126 -3.88484,-1.43126c-4.90717,0 -9.81433,5.77614 -9.81433,9.35429c0,1.58461 1.07344,2.60693 2.70916,2.60693c2.8114,0 6.49177,-3.16921 8.28084,-4.80493c-0.15335,0.66451 -0.25558,1.32902 -0.25558,1.99354c0,1.94242 0.76674,3.42479 3.1181,3.47591zM377.76909,248.75029c-0.40893,0 -0.66451,-0.25558 -0.66451,-0.81786c0,-2.14689 3.42479,-6.95182 7.56521,-7.15628c0.92009,0 1.99354,0.3067 2.5047,0.81786c-0.86898,0.92009 -7.30963,7.15628 -9.4054,7.15628z" data-paper-data="{&quot;glyphName&quot;:&quot;a&quot;,&quot;glyphIndex&quot;:6,&quot;word&quot;:2}"></path><path d="M408.38776,251.3061c6.23619,0 16.15275,-5.06051 22.49118,-8.07638c0.46005,-0.20447 0.6134,-0.56228 0.6134,-0.92009c0,-0.51116 -0.35781,-1.12456 -0.97121,-1.12456c-0.15335,0 -0.35781,0.05112 -0.51116,0.15335c-6.03172,2.8114 -15.74382,7.87191 -21.46885,7.87191c-1.94242,-0.05112 -2.65805,-0.35781 -2.70916,-1.84019c0,-1.58461 0.86898,-4.0893 3.06698,-8.17861c3.62926,-6.69624 9.66098,-16.6128 13.29024,-22.18448c0.15335,-0.20447 0.20447,-0.35781 0.20447,-0.56228c0,-0.51116 -0.51116,-1.02233 -1.12456,-1.02233c-0.3067,0 -0.6134,0.10223 -0.81786,0.46005c-3.57814,5.46945 -9.81433,15.69271 -13.39247,22.28671c-1.73795,3.22033 -3.32256,6.69624 -3.32256,9.30317c0,2.45358 1.27791,3.78261 4.65158,3.83372z" data-paper-data="{&quot;glyphName&quot;:&quot;l&quot;,&quot;glyphIndex&quot;:7,&quot;word&quot;:2}"></path><path d="M434.91712,235.35781c0.10223,0 0.20447,0 0.35781,-0.05112l1.27791,-0.56228c0.51116,-0.15335 0.71563,-0.51116 0.71563,-0.92009c0,-0.51116 -0.40893,-1.07344 -1.02233,-1.07344c-0.10223,0 -0.20447,0 -0.35781,0.05112l-1.32902,0.51116c-0.46005,0.20447 -0.66451,0.56228 -0.66451,0.97121c0,0.56228 0.40893,1.07344 1.02233,1.07344zM429.03875,251.25499c5.67391,0 18.35076,-5.3161 25.91597,-8.28084c0.46005,-0.20447 0.66451,-0.56228 0.66451,-0.92009c-0.15335,-0.66451 -0.3067,-1.12456 -1.02233,-1.12456l-0.40893,0.10223c-7.05405,2.76028 -19.83313,8.12749 -25.04699,8.12749h-0.3067c-0.3067,0 -0.51116,-0.05112 -0.51116,-0.35781v-0.10223c0.05112,-1.8913 2.8114,-5.82726 4.34489,-8.12749c0.15335,-0.20447 0.20447,-0.40893 0.20447,-0.6134c0,-0.51116 -0.51116,-1.02233 -1.12456,-1.02233c-0.25558,0 -0.56228,0.15335 -0.76674,0.46005c-1.99354,2.91363 -4.65158,6.69624 -4.75382,9.45652c0,1.63572 0.86898,2.35135 2.8114,2.40247z" data-paper-data="{&quot;glyphName&quot;:&quot;i&quot;,&quot;glyphIndex&quot;:8,&quot;lastGlyphOfWord&quot;:true,&quot;word&quot;:2}"></path></g><g data-paper-data="{&quot;isContainerElementsWrapper&quot;:true}" fill-rule="evenodd"><path d="M68.48613,172.81529c-2.32409,2.3234 -3.48613,5.12902 -3.48613,8.41687v107.53568c0,3.28727 1.16239,6.09318 3.48716,8.41773c2.32414,2.32512 5.13014,3.48768 8.41799,3.48768h396.18945c3.28842,0 6.09462,-1.16285 8.41859,-3.48854c2.32454,-2.32282 3.48682,-5.12845 3.48682,-8.41687v-107.53568c0,-3.28842 -1.16285,-6.09462 -3.48854,-8.41859c-2.3234,-2.32454 -5.12902,-3.48682 -8.41687,-3.48682h-396.18945c-3.28796,0 -6.0943,1.16285 -8.41902,3.48854zM66.42122,288.76784v-107.53568c0,-2.89565 1.0234,-5.36641 3.07019,-7.41228c2.04719,-2.04817 4.51844,-3.07225 7.41374,-3.07225h396.18945c2.89565,0 5.36641,1.02351 7.41228,3.07053c2.04817,2.04759 3.07225,4.51893 3.07225,7.414v107.53568c0,2.89507 -1.02351,5.36583 -3.07053,7.41228c-2.04759,2.04817 -4.51893,3.07225 -7.414,3.07225h-396.18945c-2.8953,0 -5.36632,-1.0238 -7.41305,-3.07139c-2.04725,-2.04702 -3.07088,-4.51807 -3.07088,-7.41314z" data-paper-data="{&quot;isOuterDoubleOutline&quot;:true}"></path><path d="M70.96655,288.76784c0,1.63991 0.57979,3.03957 1.73937,4.19897c1.15963,1.15998 2.55938,1.73997 4.19923,1.73997h396.18945c1.63991,0 3.03957,-0.57999 4.19897,-1.73997c1.15998,-1.15941 1.73997,-2.55906 1.73997,-4.19897v-107.53568c0,-1.63991 -0.57999,-3.03957 -1.73997,-4.19897c-1.15941,-1.15998 -2.55906,-1.73997 -4.19897,-1.73997h-396.18945c-1.63991,0 -3.03965,0.57999 -4.19923,1.73997c-1.15958,1.15941 -1.73937,2.55906 -1.73937,4.19897zM76.90515,292.28992c-0.97265,0 -1.8029,-0.34375 -2.49074,-1.03125c-0.68779,-0.68807 -1.03168,-1.51835 -1.03168,-2.49083v-107.53568c0,-0.97248 0.34389,-1.80275 1.03168,-2.49083c0.68779,-0.6875 1.51804,-1.03125 2.49074,-1.03125h396.18945c0.97248,0 1.80275,0.34375 2.49083,1.03125c0.6875,0.68807 1.03125,1.51835 1.03125,2.49083v107.53568c0,0.97248 -0.34375,1.80275 -1.03125,2.49083c-0.68807,0.6875 -1.51835,1.03125 -2.49083,1.03125z" data-paper-data="{&quot;isBaseLogoContainer&quot;:true}"></path></g></g></g></svg>